<?xml version="1.0" encoding="UTF-8"?>
<svg id="Layer_1" data-name="Layer 1" xmlns="http://www.w3.org/2000/svg" version="1.1" viewBox="0 0 32 32">
  <defs>
    <style>
      .cls-1 {
        fill: #fff;
        stroke-width: 0px;
      }
    </style>
  </defs>
  <path class="cls-1" d="M16,27c-.2,0-.5,0-.6-.2-.2-.2-5.9-5.1-8.3-10.4-.2-.5,0-1.1.5-1.3.5-.2,1.1,0,1.3.5,1.7,3.9,5.6,7.7,7.1,9.1,2.7-2.6,8-8.6,8-12.4s-3.6-8.2-8-8.2-8,3.7-8,8.2-.4,1-1,1-1-.4-1-1c0-5.6,4.5-10.2,10-10.2s10,4.6,10,10.2-8.9,14.2-9.3,14.5c-.2.2-.4.3-.7.3Z"/>
  <path class="cls-1" d="M16,16c-2.2,0-4-1.8-4-4s1.8-4,4-4,4,1.8,4,4-1.8,4-4,4ZM16,10c-1.1,0-2,.9-2,2s.9,2,2,2,2-.9,2-2-.9-2-2-2Z"/>
  <path class="cls-1" d="M29,30H3c-.4,0-.7-.2-.9-.5-.2-.3-.2-.7,0-1l4-7c.3-.5.9-.6,1.4-.4.5.3.6.9.4,1.4l-3.1,5.5h22.6l-3.1-5.5c-.3-.5-.1-1.1.4-1.4.5-.3,1.1-.1,1.4.4l4,7c.2.3.2.7,0,1-.2.3-.5.5-.9.5Z"/>
</svg>